<svg width="129" height="129" viewBox="0 0 129 129" fill="none" xmlns="http://www.w3.org/2000/svg">
<rect x="2" y="2" width="126" height="126" rx="19" fill="url(#paint0_linear_5_20)" stroke="#F7F7F7" stroke-width="2"/>
<path d="M99.8889 1C94.1429 62.9144 73.2707 81.8103 1 84.1111" stroke="#F7F7F7" stroke-width="2"/>
<path d="M30.3957 23.4022C29.6557 23.0222 28.8457 22.6922 27.9657 22.4122C27.0857 22.1322 26.2257 21.9922 25.3857 21.9922C24.2257 21.9922 23.2957 22.2622 22.5957 22.8022C21.9157 23.3422 21.5757 24.0622 21.5757 24.9622C21.5757 25.6422 21.7957 26.2222 22.2357 26.7022C22.6757 27.1622 23.2557 27.5622 23.9757 27.9022C24.6957 28.2422 25.4457 28.5622 26.2257 28.8622C26.9057 29.1222 27.5757 29.4122 28.2357 29.7322C28.8957 30.0522 29.4857 30.4522 30.0057 30.9322C30.5457 31.4122 30.9657 32.0022 31.2657 32.7022C31.5857 33.4022 31.7457 34.2722 31.7457 35.3122C31.7457 36.4522 31.4557 37.4922 30.8757 38.4322C30.3157 39.3722 29.5057 40.1122 28.4457 40.6522C27.3857 41.1922 26.1257 41.4622 24.6657 41.4622C23.7057 41.4622 22.7857 41.3522 21.9057 41.1322C21.0457 40.9122 20.2457 40.6322 19.5057 40.2922C18.7657 39.9322 18.1057 39.5622 17.5257 39.1822L18.8157 36.9022C19.2957 37.2422 19.8457 37.5722 20.4657 37.8922C21.0857 38.1922 21.7357 38.4422 22.4157 38.6422C23.0957 38.8222 23.7557 38.9122 24.3957 38.9122C25.0757 38.9122 25.7457 38.7922 26.4057 38.5522C27.0857 38.2922 27.6457 37.9022 28.0857 37.3822C28.5257 36.8622 28.7457 36.1722 28.7457 35.3122C28.7457 34.5722 28.5457 33.9622 28.1457 33.4822C27.7657 32.9822 27.2557 32.5622 26.6157 32.2222C25.9757 31.8622 25.2957 31.5422 24.5757 31.2622C23.8957 31.0022 23.2057 30.7222 22.5057 30.4222C21.8057 30.1022 21.1557 29.7222 20.5557 29.2822C19.9557 28.8222 19.4757 28.2622 19.1157 27.6022C18.7557 26.9422 18.5757 26.1422 18.5757 25.2022C18.5757 24.0622 18.8457 23.0722 19.3857 22.2322C19.9457 21.3722 20.7057 20.7022 21.6657 20.2222C22.6257 19.7222 23.7257 19.4522 24.9657 19.4122C26.3657 19.4122 27.5957 19.5822 28.6557 19.9222C29.7357 20.2622 30.6857 20.6822 31.5057 21.1822L30.3957 23.4022ZM37.1466 23.3422H39.9366V28.8622H43.3566V31.0522H39.9366V41.2222H37.1466V31.0522H34.8666V28.8622H37.1466V23.3422Z" fill="#F7F7F7"/>
<defs>
<linearGradient id="paint0_linear_5_20" x1="65" y1="1" x2="65" y2="129" gradientUnits="userSpaceOnUse">
<stop stop-color="#6432B3"/>
<stop offset="1" stop-color="#6F2BFF"/>
</linearGradient>
</defs>
</svg>
